<?xml version="1.0" encoding="UTF-8" standalone="no" ?>
<!DOCTYPE svg PUBLIC "-//W3C//DTD SVG 1.1//EN" "http://www.w3.org/Graphics/SVG/1.1/DTD/svg11.dtd">
<svg xmlns="http://www.w3.org/2000/svg" xmlns:xlink="http://www.w3.org/1999/xlink" version="1.1" width="466.913" height="490.158" viewBox="0 0 466.913 490.158" xml:space="preserve">
<desc>Created with Fabric.js 4.6.0</desc>
<defs>
</defs>
<g transform="matrix(1 0 0 1 154.76 39.2)" id="UeWE4cjXwNH4uQvWnaMfS"  >
<path style="stroke: rgb(255,255,255); stroke-opacity: 0; stroke-width: 1; stroke-dasharray: none; stroke-linecap: butt; stroke-dashoffset: 0; stroke-linejoin: miter; stroke-miterlimit: 4; fill: rgb(247,151,98); fill-rule: nonzero; opacity: 1;" vector-effect="non-scaling-stroke"  transform=" translate(0, 0)" d="M 0 -29.75331 L 29.75332 29.753320000000002 C 20.353479999999998 26.824700000000004 10.3599 25.24669 0 25.24669 C -10.3599 25.24669 -20.35348 26.8247 -29.75332 29.753320000000002 z" stroke-linecap="round" />
</g>
<g transform="matrix(0 1 -1 0 280.75 164.21)" id="GnzQZe11hrubaKIhQjdth"  >
<path style="stroke: rgb(255,255,255); stroke-opacity: 0; stroke-width: 1; stroke-dasharray: none; stroke-linecap: butt; stroke-dashoffset: 0; stroke-linejoin: miter; stroke-miterlimit: 4; fill: rgb(247,151,98); fill-rule: nonzero; opacity: 1;" vector-effect="non-scaling-stroke"  transform=" translate(-29.75, -29.75)" d="M 29.75332 0 L 59.50664 59.50663 C 50.1068 56.57801 40.11322 55 29.75332 55 C 19.39342 55 9.399839999999998 56.57801 0 59.50663 z" stroke-linecap="round" />
</g>
<g transform="matrix(-1 0 0 -1 154.75 290.2)" id="Z79G82yqhQGbXNoe_c1R9"  >
<path style="stroke: rgb(255,255,255); stroke-opacity: 0; stroke-width: 1; stroke-dasharray: none; stroke-linecap: butt; stroke-dashoffset: 0; stroke-linejoin: miter; stroke-miterlimit: 4; fill: rgb(247,151,98); fill-rule: nonzero; opacity: 1;" vector-effect="non-scaling-stroke"  transform=" translate(-29.75, -29.75)" d="M 29.75332 0 L 59.50664 59.50663 C 50.1068 56.57801 40.11322 55 29.75332 55 C 19.39342 55 9.399839999999998 56.57801 0 59.50663 z" stroke-linecap="round" />
</g>
<g transform="matrix(0 -1 1 0 29.76 164.2)" id="mCN953rHntnx4s9IwXnRK"  >
<path style="stroke: rgb(255,255,255); stroke-opacity: 0; stroke-width: 1; stroke-dasharray: none; stroke-linecap: butt; stroke-dashoffset: 0; stroke-linejoin: miter; stroke-miterlimit: 4; fill: rgb(247,151,98); fill-rule: nonzero; opacity: 1;" vector-effect="non-scaling-stroke"  transform=" translate(0, 0)" d="M 0 -29.75331 L 29.75332 29.753320000000002 C 20.353479999999998 26.824700000000004 10.3599 25.24669 0 25.24669 C -10.3599 25.24669 -20.35348 26.8247 -29.75332 29.753320000000002 z" stroke-linecap="round" />
</g>
<g transform="matrix(1 0 0 1 155.01 164.45)" id="BZmRPl5wscMijymHgm1Hh"  >
<path style="stroke: rgb(255,255,255); stroke-width: 0; stroke-dasharray: none; stroke-linecap: butt; stroke-dashoffset: 0; stroke-linejoin: miter; stroke-miterlimit: 4; fill: rgb(136,49,8); fill-rule: nonzero; opacity: 1;" vector-effect="non-scaling-stroke"  transform=" translate(-92, -92)" d="M 92 0 C 142.784 0 184 41.216 184 92 C 184 142.784 142.784 184 92 184 C 41.216 184 0 142.784 0 92 C 0 41.216 41.216 0 92 0 z" stroke-linecap="round" />
</g>
<g transform="matrix(1 0 0 1 303.15 388.71)" id="OrT1BYkT-pWicLKCX9mrp"  >
<path style="stroke: rgb(255,255,255); stroke-width: 0; stroke-dasharray: none; stroke-linecap: butt; stroke-dashoffset: 0; stroke-linejoin: miter; stroke-miterlimit: 4; fill: rgb(33,33,33); fill-rule: nonzero; opacity: 1;" vector-effect="non-scaling-stroke"  transform=" translate(-92, -92)" d="M 92 0 C 142.784 0 184 41.216 184 92 C 184 142.784 142.784 184 92 184 C 41.216 184 0 142.784 0 92 C 0 41.216 41.216 0 92 0 z" stroke-linecap="round" />
</g>
<g transform="matrix(1 0 0 1 366.92 335.21)" id="VDdPx2Q1Bx6C_G6qGQLG-"  >
<path style="stroke: rgb(255,255,255); stroke-width: 0; stroke-dasharray: none; stroke-linecap: butt; stroke-dashoffset: 0; stroke-linejoin: miter; stroke-miterlimit: 4; fill: rgb(236,13,13); fill-rule: nonzero; opacity: 1;" vector-effect="non-scaling-stroke"  transform=" translate(0, 0)" d="M 0 -100 C 55.2 -100 100 -55.2 100 0 C 100 55.2 55.2 100 0 100 C -55.2 100 -100 55.2 -100 0 C -100 -55.2 -55.2 -100 0 -100 z" stroke-linecap="round" />
</g>
<g transform="matrix(1 0 0 1 45.26 374.7)" id="1nusOSz1WMlbaza00foB_"  >
<path style="stroke: none; stroke-width: 1; stroke-dasharray: none; stroke-linecap: butt; stroke-dashoffset: 0; stroke-linejoin: miter; stroke-miterlimit: 4; fill: rgb(29,178,29); fill-rule: nonzero; opacity: 1;" vector-effect="non-scaling-stroke"  transform=" translate(0, 0)" d="M 14.87665 0 L 29.7533 29.7533 L 0 29.7533 L -29.7533 29.7533 L -14.87665 0 L 0 -29.7533 z" stroke-linecap="round" />
</g>
<g transform="matrix(1 0 0 1 45.26 408.99)" id="zmbQ_N13WAr5VHhaKMaLl"  >
<path style="stroke: rgb(255,255,255); stroke-width: 0; stroke-dasharray: none; stroke-linecap: butt; stroke-dashoffset: 0; stroke-linejoin: miter; stroke-miterlimit: 4; fill: rgb(62,29,178); fill-rule: nonzero; opacity: 1;" vector-effect="non-scaling-stroke"  transform=" translate(-29.75, -4.78)" d="M 29.75329 9.5643 C 16.214190000000002 9.5643 4.63541 5.595549999999999 0 0 L 59.5066 0 C 54.87117 5.59555 43.2924 9.5643 29.75331 9.5643 z" stroke-linecap="round" />
</g>
<g transform="matrix(0.71 0.71 -0.71 0.71 233.11 86.55)" id="6RZQxl34qWp7SfY9bcrEa"  >
<path style="stroke: none; stroke-width: 10; stroke-dasharray: none; stroke-linecap: butt; stroke-dashoffset: 0; stroke-linejoin: miter; stroke-miterlimit: 4; fill: rgb(201,87,42); fill-rule: nonzero; opacity: 1;" vector-effect="non-scaling-stroke"  transform=" translate(-35, -50)" d="M 35 99.98063 C 9.48311 100.55107000000001 0 88.52976000000001 0 88.52976000000001 L 35 1.4210854715202004e-14 L 70 88.52976000000001 C 70 88.52976000000001 60.516890000000004 99.41019000000001 35 99.98063 z" stroke-linecap="round" />
</g>
<g transform="matrix(0.71 0.71 -0.71 0.71 236.18 83.52)" id="CeG0eWwl1489zShipbiph"  >
<path style="stroke: none; stroke-width: 1; stroke-dasharray: none; stroke-linecap: butt; stroke-dashoffset: 0; stroke-linejoin: miter; stroke-miterlimit: 4; fill: rgb(255,255,255); fill-rule: nonzero; opacity: 1;" vector-effect="non-scaling-stroke"  transform=" translate(-35.03, -45.7)" d="M 35.112 104.979 C 7.598 105.594 -3.926 91.626 -3.926 91.626 L -5.776 89.54 L 35 -13.6 L 75.83 89.677 L 73.769 91.815 C 73.769 91.815 62.476 104.368 35.112 104.979 Z M 64.12 87.257 L 35 13.6 L 5.801 87.456 C 9.25 90.573 11.368 95.508 34.888 94.982 C 58.558 94.453 60.483 90.168 64.12 87.257 Z" stroke-linecap="round" />
</g>
<g transform="matrix(0.71 0.71 -0.71 0.71 387.38 86.55)" id="c5RVPFM7UTqQG7koIqkDj"  >
<path style="stroke: rgb(232,35,35); stroke-width: 10; stroke-dasharray: none; stroke-linecap: butt; stroke-dashoffset: 0; stroke-linejoin: miter; stroke-miterlimit: 4; fill: rgb(33,33,33); fill-rule: nonzero; opacity: 1;" vector-effect="non-scaling-stroke"  transform=" translate(-35, -50)" d="M 35 99.98063 C 9.48311 100.55107000000001 0 88.52976000000001 0 88.52976000000001 L 35 1.4210854715202004e-14 L 70 88.52976000000001 C 70 88.52976000000001 60.516890000000004 99.41019000000001 35 99.98063 z" stroke-linecap="round" />
</g>
<g transform="matrix(-0.71 0.71 -0.71 -0.71 233.11 242.55)" id="C7jS5xhagFjtpioRK3iL9"  >
<path style="stroke: none; stroke-width: 10; stroke-dasharray: none; stroke-linecap: butt; stroke-dashoffset: 0; stroke-linejoin: miter; stroke-miterlimit: 4; fill: rgb(201,87,42); fill-opacity: 0.99; fill-rule: nonzero; opacity: 1;" vector-effect="non-scaling-stroke"  transform=" translate(-35, -50)" d="M 35 99.98063 C 9.48311 100.55107000000001 0 88.52976000000001 0 88.52976000000001 L 35 1.4210854715202004e-14 L 70 88.52976000000001 C 70 88.52976000000001 60.516890000000004 99.41019000000001 35 99.98063 z" stroke-linecap="round" />
</g>
<g transform="matrix(-0.71 0.71 -0.71 -0.71 236.14 245.62)" id="ZPYB2702iiS39KNF6P1dL"  >
<path style="stroke: none; stroke-width: 1; stroke-dasharray: none; stroke-linecap: butt; stroke-dashoffset: 0; stroke-linejoin: miter; stroke-miterlimit: 4; fill: rgb(255,255,255); fill-rule: nonzero; opacity: 1;" vector-effect="non-scaling-stroke"  transform=" translate(-35.03, -45.7)" d="M 35.112 104.979 C 7.598 105.594 -3.926 91.626 -3.926 91.626 L -5.776 89.54 L 35 -13.6 L 75.83 89.677 L 73.769 91.815 C 73.769 91.815 62.476 104.368 35.112 104.979 Z M 64.12 87.257 L 35 13.6 L 5.801 87.456 C 9.25 90.573 11.368 95.508 34.888 94.982 C 58.558 94.453 60.483 90.168 64.12 87.257 Z" stroke-linecap="round" />
</g>
<g transform="matrix(-0.71 -0.71 0.71 -0.71 77.11 242.55)" id="VbF8QCi46kmNWrumGxX_C"  >
<path style="stroke: none; stroke-width: 10; stroke-dasharray: none; stroke-linecap: butt; stroke-dashoffset: 0; stroke-linejoin: miter; stroke-miterlimit: 4; fill: rgb(201,87,42); fill-rule: nonzero; opacity: 1;" vector-effect="non-scaling-stroke"  transform=" translate(-35, -50)" d="M 35 99.98062 C 9.48311 100.55106 0 88.52975 0 88.52975 L 35 -0.000009999999988963282 L 70 88.52975 C 70 88.52975 60.516890000000004 99.41018000000001 35 99.98062 z" stroke-linecap="round" />
</g>
<g transform="matrix(-0.71 -0.71 0.71 -0.71 74.03 245.59)" id="r788d_dX9AsWM3tL8u895"  >
<path style="stroke: none; stroke-width: 1; stroke-dasharray: none; stroke-linecap: butt; stroke-dashoffset: 0; stroke-linejoin: miter; stroke-miterlimit: 4; fill: rgb(255,255,255); fill-rule: nonzero; opacity: 1;" vector-effect="non-scaling-stroke"  transform=" translate(-35.03, -45.7)" d="M 35.112 104.979 C 7.598 105.594 -3.926 91.626 -3.926 91.626 L -5.776 89.54 L 35 -13.6 L 75.83 89.677 L 73.769 91.815 C 73.769 91.815 62.476 104.368 35.112 104.979 Z M 64.12 87.257 L 35 13.6 L 5.801 87.456 C 9.25 90.573 11.368 95.508 34.888 94.982 C 58.558 94.453 60.483 90.168 64.12 87.257 Z" stroke-linecap="round" />
</g>
<g transform="matrix(0.71 -0.71 0.71 0.71 77.11 86.55)" id="A6N5g6OWkMYntfqsgHdFU"  >
<path style="stroke: none; stroke-width: 10; stroke-dasharray: none; stroke-linecap: butt; stroke-dashoffset: 0; stroke-linejoin: miter; stroke-miterlimit: 4; fill: rgb(201,87,42); fill-opacity: 0.99; fill-rule: nonzero; opacity: 1;" vector-effect="non-scaling-stroke"  transform=" translate(-35, -50)" d="M 35 99.98063 C 9.48311 100.55107000000001 0 88.52976000000001 0 88.52976000000001 L 35 1.4210854715202004e-14 L 70 88.52976000000001 C 70 88.52976000000001 60.516890000000004 99.41019000000001 35 99.98063 z" stroke-linecap="round" />
</g>
<g transform="matrix(0.71 -0.71 0.71 0.71 74.07 83.48)" id="ls9LgAlVYh1wMwe6ZNcv2"  >
<path style="stroke: none; stroke-width: 1; stroke-dasharray: none; stroke-linecap: butt; stroke-dashoffset: 0; stroke-linejoin: miter; stroke-miterlimit: 4; fill: rgb(255,255,255); fill-rule: nonzero; opacity: 1;" vector-effect="non-scaling-stroke"  transform=" translate(-35.03, -45.7)" d="M 35.112 104.979 C 7.598 105.594 -3.926 91.626 -3.926 91.626 L -5.776 89.54 L 35 -13.6 L 75.83 89.677 L 73.769 91.815 C 73.769 91.815 62.476 104.368 35.112 104.979 Z M 64.12 87.257 L 35 13.6 L 5.801 87.456 C 9.25 90.573 11.368 95.508 34.888 94.982 C 58.558 94.453 60.483 90.168 64.12 87.257 Z" stroke-linecap="round" />
</g>
<g transform="matrix(1 0 0 1 124.51 371.42)" id="o_CNKkqPO6Nfo-yZ8xVvR"  >
<path style="stroke: rgb(49,168,247); stroke-width: 0; stroke-dasharray: none; stroke-linecap: butt; stroke-dashoffset: 0; stroke-linejoin: miter; stroke-miterlimit: 4; fill: rgb(33,33,33); fill-rule: nonzero; opacity: 1;" vector-effect="non-scaling-stroke"  transform=" translate(0, 0)" d="M 0 42.3421 C -27.33953 42.82536 -37.5 32.64124 -37.5 32.64124 L 0 -42.35876 L 37.5 32.64124 C 37.5 32.64124 27.33953 41.85884 0 42.3421 z" stroke-linecap="round" />
</g>
</svg>