<?xml version="1.0" encoding="UTF-8" standalone="no" ?>
<!DOCTYPE svg PUBLIC "-//W3C//DTD SVG 1.1//EN" "http://www.w3.org/Graphics/SVG/1.1/DTD/svg11.dtd">
<svg xmlns="http://www.w3.org/2000/svg" xmlns:xlink="http://www.w3.org/1999/xlink" version="1.1" width="466.913" height="490.158" viewBox="0 0 466.913 490.158" xml:space="preserve">
<desc>Created with Fabric.js 4.6.0</desc>
<defs>
</defs>
<g transform="matrix(1 0 0 1 154.76 39.2)" id="UeWE4cjXwNH4uQvWnaMfS"  >
<path style="stroke: rgb(255,255,255); stroke-opacity: 0; stroke-width: 1; stroke-dasharray: none; stroke-linecap: butt; stroke-dashoffset: 0; stroke-linejoin: miter; stroke-miterlimit: 4; fill: rgb(247,151,98); fill-rule: nonzero; opacity: 1;" vector-effect="non-scaling-stroke"  transform=" translate(0, 0)" d="M 0 -29.75331 L 29.75332 29.753320000000002 C 20.353479999999998 26.824700000000004 10.3599 25.24669 0 25.24669 C -10.3599 25.24669 -20.35348 26.8247 -29.75332 29.753320000000002 z" stroke-linecap="round" />
</g>
<g transform="matrix(0 1 -1 0 280.75 164.21)" id="GnzQZe11hrubaKIhQjdth"  >
<path style="stroke: rgb(255,255,255); stroke-opacity: 0; stroke-width: 1; stroke-dasharray: none; stroke-linecap: butt; stroke-dashoffset: 0; stroke-linejoin: miter; stroke-miterlimit: 4; fill: rgb(247,151,98); fill-rule: nonzero; opacity: 1;" vector-effect="non-scaling-stroke"  transform=" translate(-29.75, -29.75)" d="M 29.75332 0 L 59.50664 59.50663 C 50.1068 56.57801 40.11322 55 29.75332 55 C 19.39342 55 9.399839999999998 56.57801 0 59.50663 z" stroke-linecap="round" />
</g>
<g transform="matrix(-1 0 0 -1 154.75 290.2)" id="Z79G82yqhQGbXNoe_c1R9"  >
<path style="stroke: rgb(255,255,255); stroke-opacity: 0; stroke-width: 1; stroke-dasharray: none; stroke-linecap: butt; stroke-dashoffset: 0; stroke-linejoin: miter; stroke-miterlimit: 4; fill: rgb(247,151,98); fill-rule: nonzero; opacity: 1;" vector-effect="non-scaling-stroke"  transform=" translate(-29.75, -29.75)" d="M 29.75332 0 L 59.50664 59.50663 C 50.1068 56.57801 40.11322 55 29.75332 55 C 19.39342 55 9.399839999999998 56.57801 0 59.50663 z" stroke-linecap="round" />
</g>
<g transform="matrix(0 -1 1 0 29.76 164.2)" id="mCN953rHntnx4s9IwXnRK"  >
<path style="stroke: rgb(255,255,255); stroke-opacity: 0; stroke-width: 1; stroke-dasharray: none; stroke-linecap: butt; stroke-dashoffset: 0; stroke-linejoin: miter; stroke-miterlimit: 4; fill: rgb(247,151,98); fill-rule: nonzero; opacity: 1;" vector-effect="non-scaling-stroke"  transform=" translate(0, 0)" d="M 0 -29.75331 L 29.75332 29.753320000000002 C 20.353479999999998 26.824700000000004 10.3599 25.24669 0 25.24669 C -10.3599 25.24669 -20.35348 26.8247 -29.75332 29.753320000000002 z" stroke-linecap="round" />
</g>
<g transform="matrix(1 0 0 1 303.15 388.71)" id="OrT1BYkT-pWicLKCX9mrp"  >
<path style="stroke: rgb(255,255,255); stroke-width: 0; stroke-dasharray: none; stroke-linecap: butt; stroke-dashoffset: 0; stroke-linejoin: miter; stroke-miterlimit: 4; fill: rgb(33,33,33); fill-rule: nonzero; opacity: 1;" vector-effect="non-scaling-stroke"  transform=" translate(-92, -92)" d="M 92 0 C 142.784 0 184 41.216 184 92 C 184 142.784 142.784 184 92 184 C 41.216 184 0 142.784 0 92 C 0 41.216 41.216 0 92 0 z" stroke-linecap="round" />
</g>
<g transform="matrix(1 0 0 1 366.92 335.21)" id="VDdPx2Q1Bx6C_G6qGQLG-"  >
<path style="stroke: rgb(255,255,255); stroke-width: 0; stroke-dasharray: none; stroke-linecap: butt; stroke-dashoffset: 0; stroke-linejoin: miter; stroke-miterlimit: 4; fill: rgb(236,13,13); fill-rule: nonzero; opacity: 1;" vector-effect="non-scaling-stroke"  transform=" translate(0, 0)" d="M 0 -100 C 55.2 -100 100 -55.2 100 0 C 100 55.2 55.2 100 0 100 C -55.2 100 -100 55.2 -100 0 C -100 -55.2 -55.2 -100 0 -100 z" stroke-linecap="round" />
</g>
<g transform="matrix(1 0 0 1 45.26 374.7)" id="1nusOSz1WMlbaza00foB_"  >
<path style="stroke: none; stroke-width: 1; stroke-dasharray: none; stroke-linecap: butt; stroke-dashoffset: 0; stroke-linejoin: miter; stroke-miterlimit: 4; fill: rgb(29,178,29); fill-rule: nonzero; opacity: 1;" vector-effect="non-scaling-stroke"  transform=" translate(0, 0)" d="M 14.87665 0 L 29.7533 29.7533 L 0 29.7533 L -29.7533 29.7533 L -14.87665 0 L 0 -29.7533 z" stroke-linecap="round" />
</g>
<g transform="matrix(1 0 0 1 45.26 408.99)" id="zmbQ_N13WAr5VHhaKMaLl"  >
<path style="stroke: rgb(255,255,255); stroke-width: 0; stroke-dasharray: none; stroke-linecap: butt; stroke-dashoffset: 0; stroke-linejoin: miter; stroke-miterlimit: 4; fill: rgb(62,29,178); fill-rule: nonzero; opacity: 1;" vector-effect="non-scaling-stroke"  transform=" translate(-29.75, -4.78)" d="M 29.75329 9.5643 C 16.214190000000002 9.5643 4.63541 5.595549999999999 0 0 L 59.5066 0 C 54.87117 5.59555 43.2924 9.5643 29.75331 9.5643 z" stroke-linecap="round" />
</g>
<g transform="matrix(0.71 0.71 -0.71 0.71 387.38 86.55)" id="c5RVPFM7UTqQG7koIqkDj"  >
<path style="stroke: rgb(232,35,35); stroke-width: 10; stroke-dasharray: none; stroke-linecap: butt; stroke-dashoffset: 0; stroke-linejoin: miter; stroke-miterlimit: 4; fill: rgb(33,33,33); fill-rule: nonzero; opacity: 1;" vector-effect="non-scaling-stroke"  transform=" translate(-35, -50)" d="M 35 99.98063 C 9.48311 100.55107000000001 0 88.52976000000001 0 88.52976000000001 L 35 1.4210854715202004e-14 L 70 88.52976000000001 C 70 88.52976000000001 60.516890000000004 99.41019000000001 35 99.98063 z" stroke-linecap="round" />
</g>
<g transform="matrix(1 0 0 1 155.01 164.45)" id="KEp0x6sK355gYrwCzryAi"  >
<path style="stroke: rgb(255,255,255); stroke-width: 0; stroke-dasharray: none; stroke-linecap: butt; stroke-dashoffset: 0; stroke-linejoin: miter; stroke-miterlimit: 4; fill: rgb(136,49,8); fill-rule: nonzero; opacity: 1;" vector-effect="non-scaling-stroke"  transform=" translate(-92, -92)" d="M 92 0.00001 C 104.56514 0.00001 116.54455 2.52318 127.45886 7.09016 L 113.31792 13.217939999999999 L 113.15104 16.001109999999997 C 113.15104 16.001109999999997 111.42286999999999 34.02668 131.31307999999999 53.04714 C 151.09438999999998 71.96437 167.95605999999998 71.07341 167.95605999999998 71.07341 L 170.9252 71.01895999999999 L 177.05148 56.88152999999999 C 181.52897 67.70433 184 79.56535 184 92 C 184 104.47493 181.51293 116.3725 177.0079 127.2236 L 170.98206000000002 113.31791000000001 L 168.19889 113.15103 C 168.19889 113.15103 150.17332000000002 111.42286 131.15286 131.31307 C 112.23563 151.09438 113.12659000000001 167.95605 113.12659000000001 167.95605 L 113.18104000000001 170.92519000000001 L 127.22070000000001 177.00910000000002 C 116.37038000000001 181.51336 104.47382 183.99999000000003 92 183.99999000000003 C 79.5668 183.99999000000003 67.7071 181.52953000000002 56.88532 177.05303000000004 L 70.87209 170.99206000000004 L 71.03897 168.20889000000003 C 71.03897 168.20889000000003 72.76714000000001 150.18332000000004 52.87693 131.16286000000002 C 33.09562 112.24563000000002 16.23395 113.13659000000003 16.23395 113.13659000000003 L 13.26481 113.19104000000003 L 7.0861600000000005 127.44931000000003 C 2.5217 116.53757000000003 8.881784197001252e-16 104.56148000000002 8.881784197001252e-16 92.00000000000003 C 8.881784197001252e-16 79.47843000000003 2.505700000000001 67.53855000000003 7.0427100000000005 56.654740000000025 L 13.207930000000001 70.88209000000002 L 15.991100000000001 71.04897000000003 C 15.991100000000001 71.04897000000003 34.01667 72.77714000000003 53.037130000000005 52.88693000000002 C 71.95436000000001 33.105620000000016 71.0634 16.24395000000002 71.0634 16.24395000000002 L 71.00895 13.27481000000002 L 56.640769999999996 7.04854000000002 C 67.52833 2.5078600000000195 79.47306999999999 0.000010000000019161348 91.99999 0.000010000000019161348 z M 138.22363 45.81981 C 121.22054000000001 29.560599999999997 123.21246000000002 24.573369999999997 122.97770000000001 19.930509999999998 L 139.07746 12.953969999999998 C 152.29312 20.84592 163.36695 31.95772 171.21323999999998 45.203669999999995 L 164.35618 61.027559999999994 C 159.72603999999998 60.514199999999995 155.33491 62.18297 138.22362999999999 45.81980999999999 z M 138.3802 138.22363 C 154.63941 121.22054000000001 159.62664 123.21246000000002 164.2695 122.97770000000001 L 171.1618 138.88307 C 163.27962 152.15641 152.15436 163.28136 138.88078000000002 171.16317 L 123.17246000000002 164.35618 C 123.68582000000002 159.72603999999998 122.01705000000001 155.33491 138.38021 138.22362999999999 z M 45.96637 138.39019 C 62.96946 154.64939999999999 60.97754 159.63663 61.2123 164.27948999999998 L 45.20689 171.21514 C 31.956920000000004 163.3672 20.842190000000002 152.28984 12.949310000000004 139.06966999999997 L 19.833820000000003 123.18243999999997 C 24.463960000000004 123.69579999999998 28.855090000000004 122.02702999999997 45.96637 138.39018999999996 z M 45.8098 45.97637 C 29.550590000000003 62.97946 24.563360000000003 60.98754 19.920500000000004 61.222300000000004 L 12.897980000000004 45.016420000000004 C 20.753880000000002 31.825570000000006 31.815180000000005 20.762690000000003 45.004780000000004 12.904910000000001 L 61.01755 19.84382 C 60.50419 24.47396 62.17296 28.865090000000002 45.809799999999996 45.97637 z" stroke-linecap="round" />
</g>
<g transform="matrix(1 0 0 1 87.79 231.97)" id="iyMrFg-5iTKFF5hj4-7KW"  >
<path style="stroke: none; stroke-width: 10; stroke-dasharray: none; stroke-linecap: butt; stroke-dashoffset: 0; stroke-linejoin: miter; stroke-miterlimit: 4; fill: rgb(201,87,42); fill-rule: nonzero; opacity: 1;" vector-effect="non-scaling-stroke"  transform=" translate(-36.44, -36.34)" d="M 31.49241 0 L 0 72.67431 L 72.87089 41.09704000000001 C 72.63613000000001 36.45418000000001 74.62805 31.466950000000008 57.62496 15.207740000000008 C 40.51368 -1.1554199999999923 36.122550000000004 0.513350000000008 31.492410000000003 -0.000009999999992515995 z" stroke-linecap="round" />
</g>
<g transform="matrix(1 0 0 1 87.69 97.24)" id="yqwxNlObX7jV434hcliFs"  >
<path style="stroke: none; stroke-width: 10; stroke-dasharray: none; stroke-linecap: butt; stroke-dashoffset: 0; stroke-linejoin: miter; stroke-miterlimit: 4; fill: rgb(201,87,42); fill-opacity: 0.99; fill-rule: nonzero; opacity: 1;" vector-effect="non-scaling-stroke"  transform=" translate(-36.34, -36.44)" d="M 72.67431 31.49241 L 0 0 L 31.57727 72.87089 C 36.22013 72.63613000000001 41.207359999999994 74.62805 57.46657 57.62496 C 73.82973 40.51368 72.16096 36.122550000000004 72.67432 31.492410000000003 z" stroke-linecap="round" />
</g>
<g transform="matrix(1 0 0 1 124.51 371.42)" id="o_CNKkqPO6Nfo-yZ8xVvR"  >
<path style="stroke: rgb(49,168,247); stroke-width: 0; stroke-dasharray: none; stroke-linecap: butt; stroke-dashoffset: 0; stroke-linejoin: miter; stroke-miterlimit: 4; fill: rgb(33,33,33); fill-rule: nonzero; opacity: 1;" vector-effect="non-scaling-stroke"  transform=" translate(0, 0)" d="M 0 42.3421 C -27.33953 42.82536 -37.5 32.64124 -37.5 32.64124 L 0 -42.35876 L 37.5 32.64124 C 37.5 32.64124 27.33953 41.85884 0 42.3421 z" stroke-linecap="round" />
</g>
<g transform="matrix(1 0 0 1 222.52 231.86)" id="eI718L4SZlwX-LwR-2MJK"  >
<path style="stroke: none; stroke-width: 10; stroke-dasharray: none; stroke-linecap: butt; stroke-dashoffset: 0; stroke-linejoin: miter; stroke-miterlimit: 4; fill: rgb(201,87,42); fill-opacity: 0.99; fill-rule: nonzero; opacity: 1;" vector-effect="non-scaling-stroke"  transform=" translate(-36.34, -36.44)" d="M 0 41.37847 L 72.67431 72.87088 L 41.09704000000001 -0.000010000000003174137 C 36.45418000000001 0.23474999999999682 31.466950000000008 -1.7571700000000032 15.207740000000008 15.245919999999996 C -1.1554199999999923 32.3572 0.513350000000008 36.748329999999996 -0.000009999999992515995 41.37846999999999 z" stroke-linecap="round" />
</g>
<g transform="matrix(1 0 0 1 222.42 97.14)" id="L7m_4mqYl5kZdNBNVuaa2"  >
<path style="stroke: none; stroke-width: 10; stroke-dasharray: none; stroke-linecap: butt; stroke-dashoffset: 0; stroke-linejoin: miter; stroke-miterlimit: 4; fill: rgb(201,87,42); fill-rule: nonzero; opacity: 1;" vector-effect="non-scaling-stroke"  transform=" translate(-36.44, -36.34)" d="M 41.37847 72.67431 L 72.87088 0 L -0.000010000000003174137 31.57727 C 0.23474999999999682 36.22013 -1.7571700000000032 41.207359999999994 15.245919999999996 57.46657 C 32.3572 73.82973 36.748329999999996 72.16096 41.37846999999999 72.67432 z" stroke-linecap="round" />
</g>
</svg>