<?xml version="1.0" encoding="UTF-8" standalone="no" ?>
<!DOCTYPE svg PUBLIC "-//W3C//DTD SVG 1.1//EN" "http://www.w3.org/Graphics/SVG/1.1/DTD/svg11.dtd">
<svg xmlns="http://www.w3.org/2000/svg" xmlns:xlink="http://www.w3.org/1999/xlink" version="1.1" width="500" height="500" viewBox="0 0 500 500" xml:space="preserve">
<desc>Created with Fabric.js 4.6.0</desc>
<defs>
</defs>
<g transform="matrix(1 0 0 1 199.75 74.75)" id="huSbO7mpdZzrt0PxjWHfu"  >
<path style="stroke: rgb(255,255,255); stroke-opacity: 0; stroke-width: 1; stroke-dasharray: none; stroke-linecap: butt; stroke-dashoffset: 0; stroke-linejoin: miter; stroke-miterlimit: 4; fill: rgb(247,151,98); fill-rule: nonzero; opacity: 1;" vector-effect="non-scaling-stroke"  transform=" translate(0, 0)" d="M 0 -29.75331 L 29.75332 29.753320000000002 C 20.353479999999998 26.824700000000004 10.3599 25.24669 0 25.24669 C -10.3599 25.24669 -20.35348 26.8247 -29.75332 29.753320000000002 z" stroke-linecap="round" />
</g>
<g transform="matrix(0 1 -1 0 325.75 199.75)" id="LrDgvec9Qb5WhQ4cIPlLX"  >
<path style="stroke: rgb(255,255,255); stroke-opacity: 0; stroke-width: 1; stroke-dasharray: none; stroke-linecap: butt; stroke-dashoffset: 0; stroke-linejoin: miter; stroke-miterlimit: 4; fill: rgb(247,151,98); fill-rule: nonzero; opacity: 1;" vector-effect="non-scaling-stroke"  transform=" translate(-29.75, -29.75)" d="M 29.75332 0 L 59.50664 59.50663 C 50.1068 56.57801 40.11322 55 29.75332 55 C 19.39342 55 9.399839999999998 56.57801 0 59.50663 z" stroke-linecap="round" />
</g>
<g transform="matrix(-1 0 0 -1 199.75 325.75)" id="j3MzWGmeheg4FQj3dPSSt"  >
<path style="stroke: rgb(255,255,255); stroke-opacity: 0; stroke-width: 1; stroke-dasharray: none; stroke-linecap: butt; stroke-dashoffset: 0; stroke-linejoin: miter; stroke-miterlimit: 4; fill: rgb(247,151,98); fill-rule: nonzero; opacity: 1;" vector-effect="non-scaling-stroke"  transform=" translate(-29.75, -29.75)" d="M 29.75332 0 L 59.50664 59.50663 C 50.1068 56.57801 40.11322 55 29.75332 55 C 19.39342 55 9.399839999999998 56.57801 0 59.50663 z" stroke-linecap="round" />
</g>
<g transform="matrix(0 -1 1 0 74.75 199.75)" id="mC6GLkgrscYbpkh6OYAfU"  >
<path style="stroke: rgb(255,255,255); stroke-opacity: 0; stroke-width: 1; stroke-dasharray: none; stroke-linecap: butt; stroke-dashoffset: 0; stroke-linejoin: miter; stroke-miterlimit: 4; fill: rgb(247,151,98); fill-rule: nonzero; opacity: 1;" vector-effect="non-scaling-stroke"  transform=" translate(0, 0)" d="M 0 -29.75331 L 29.75332 29.753320000000002 C 20.353479999999998 26.824700000000004 10.3599 25.24669 0 25.24669 C -10.3599 25.24669 -20.35348 26.8247 -29.75332 29.753320000000002 z" stroke-linecap="round" />
</g>
<g transform="matrix(1 0 0 1 200 200)" id="bknDhnhv5d00cCj7eJnsn"  >
<path style="stroke: rgb(255,255,255); stroke-width: 0; stroke-dasharray: none; stroke-linecap: butt; stroke-dashoffset: 0; stroke-linejoin: miter; stroke-miterlimit: 4; fill: rgb(136,49,8); fill-rule: nonzero; opacity: 1;" vector-effect="non-scaling-stroke"  transform=" translate(-92, -92)" d="M 92 0 C 142.784 0 184 41.216 184 92 C 184 142.784 142.784 184 92 184 C 41.216 184 0 142.784 0 92 C 0 41.216 41.216 0 92 0 z" stroke-linecap="round" />
</g>
<g transform="matrix(1 0 0 1 348.14 424.26)" id="TUKUkaqYXCsYig2wuiiHJ"  >
<path style="stroke: rgb(255,255,255); stroke-width: 0; stroke-dasharray: none; stroke-linecap: butt; stroke-dashoffset: 0; stroke-linejoin: miter; stroke-miterlimit: 4; fill: rgb(33,33,33); fill-rule: nonzero; opacity: 1;" vector-effect="non-scaling-stroke"  transform=" translate(-92, -92)" d="M 92 0 C 142.784 0 184 41.216 184 92 C 184 142.784 142.784 184 92 184 C 41.216 184 0 142.784 0 92 C 0 41.216 41.216 0 92 0 z" stroke-linecap="round" />
</g>
<g transform="matrix(1 0 0 1 411.91 370.76)" id="NnDArijEPqiuBiM2k4GS7"  >
<path style="stroke: rgb(255,255,255); stroke-width: 0; stroke-dasharray: none; stroke-linecap: butt; stroke-dashoffset: 0; stroke-linejoin: miter; stroke-miterlimit: 4; fill: rgb(236,13,13); fill-rule: nonzero; opacity: 1;" vector-effect="non-scaling-stroke"  transform=" translate(0, 0)" d="M 0 -100 C 55.2 -100 100 -55.2 100 0 C 100 55.2 55.2 100 0 100 C -55.2 100 -100 55.2 -100 0 C -100 -55.2 -55.2 -100 0 -100 z" stroke-linecap="round" />
</g>
<g transform="matrix(1 0 0 1 90.25 410.25)" id="fIgd_x-f-UjeGvy0W1AQW"  >
<path style="stroke: none; stroke-width: 1; stroke-dasharray: none; stroke-linecap: butt; stroke-dashoffset: 0; stroke-linejoin: miter; stroke-miterlimit: 4; fill: rgb(29,178,29); fill-rule: nonzero; opacity: 1;" vector-effect="non-scaling-stroke"  transform=" translate(0, 0)" d="M 14.87665 0 L 29.7533 29.7533 L 0 29.7533 L -29.7533 29.7533 L -14.87665 0 L 0 -29.7533 z" stroke-linecap="round" />
</g>
<g transform="matrix(1 0 0 1 90.25 444.54)" id="AJdswvLnGPYFSee39fleD"  >
<path style="stroke: rgb(255,255,255); stroke-width: 0; stroke-dasharray: none; stroke-linecap: butt; stroke-dashoffset: 0; stroke-linejoin: miter; stroke-miterlimit: 4; fill: rgb(62,29,178); fill-rule: nonzero; opacity: 1;" vector-effect="non-scaling-stroke"  transform=" translate(-29.75, -4.78)" d="M 29.75329 9.5643 C 16.214190000000002 9.5643 4.63541 5.595549999999999 0 0 L 59.5066 0 C 54.87117 5.59555 43.2924 9.5643 29.75331 9.5643 z" stroke-linecap="round" />
</g>
<g transform="matrix(0.71 0.71 -0.71 0.71 278.1 122.1)" id="qNdRv6X-BNZQS1ywvVR7S"  >
<path style="stroke: rgb(255,255,255); stroke-width: 10; stroke-dasharray: none; stroke-linecap: butt; stroke-dashoffset: 0; stroke-linejoin: miter; stroke-miterlimit: 4; fill: rgb(201,87,42); fill-rule: nonzero; opacity: 1;" vector-effect="non-scaling-stroke"  transform=" translate(-35, -50)" d="M 35 99.98063 C 9.48311 100.55107000000001 0 88.52976000000001 0 88.52976000000001 L 35 1.4210854715202004e-14 L 70 88.52976000000001 C 70 88.52976000000001 60.516890000000004 99.41019000000001 35 99.98063 z" stroke-linecap="round" />
</g>
<g transform="matrix(0.71 0.71 -0.71 0.71 432.37 122.1)" id="T-3tTMM-GzuC8SAEWzNd-"  >
<path style="stroke: rgb(232,35,35); stroke-width: 10; stroke-dasharray: none; stroke-linecap: butt; stroke-dashoffset: 0; stroke-linejoin: miter; stroke-miterlimit: 4; fill: rgb(33,33,33); fill-rule: nonzero; opacity: 1;" vector-effect="non-scaling-stroke"  transform=" translate(-35, -50)" d="M 35 99.98063 C 9.48311 100.55107000000001 0 88.52976000000001 0 88.52976000000001 L 35 1.4210854715202004e-14 L 70 88.52976000000001 C 70 88.52976000000001 60.516890000000004 99.41019000000001 35 99.98063 z" stroke-linecap="round" />
</g>
<g transform="matrix(-0.71 0.71 -0.71 -0.71 278.1 278.1)" id="NEgGTyKQevX2grSLvrlmy"  >
<path style="stroke: rgb(255,255,255); stroke-width: 10; stroke-dasharray: none; stroke-linecap: butt; stroke-dashoffset: 0; stroke-linejoin: miter; stroke-miterlimit: 4; fill: rgb(201,87,42); fill-opacity: 0.99; fill-rule: nonzero; opacity: 1;" vector-effect="non-scaling-stroke"  transform=" translate(-35, -50)" d="M 35 99.98063 C 9.48311 100.55107000000001 0 88.52976000000001 0 88.52976000000001 L 35 1.4210854715202004e-14 L 70 88.52976000000001 C 70 88.52976000000001 60.516890000000004 99.41019000000001 35 99.98063 z" stroke-linecap="round" />
</g>
<g transform="matrix(-0.71 -0.71 0.71 -0.71 122.1 278.1)" id="Cx-CoLfWbYah4VpazpzIA"  >
<path style="stroke: rgb(255,255,255); stroke-width: 10; stroke-dasharray: none; stroke-linecap: butt; stroke-dashoffset: 0; stroke-linejoin: miter; stroke-miterlimit: 4; fill: rgb(201,87,42); fill-rule: nonzero; opacity: 1;" vector-effect="non-scaling-stroke"  transform=" translate(-35, -50)" d="M 35 99.98062 C 9.48311 100.55106 0 88.52975 0 88.52975 L 35 -0.000009999999988963282 L 70 88.52975 C 70 88.52975 60.516890000000004 99.41018000000001 35 99.98062 z" stroke-linecap="round" />
</g>
<g transform="matrix(0.71 -0.71 0.71 0.71 122.1 122.1)" id="0vfD4hImTn6qv_26br3GF"  >
<path style="stroke: rgb(255,255,255); stroke-width: 10; stroke-dasharray: none; stroke-linecap: butt; stroke-dashoffset: 0; stroke-linejoin: miter; stroke-miterlimit: 4; fill: rgb(201,87,42); fill-opacity: 0.99; fill-rule: nonzero; opacity: 1;" vector-effect="non-scaling-stroke"  transform=" translate(-35, -50)" d="M 35 99.98063 C 9.48311 100.55107000000001 0 88.52976000000001 0 88.52976000000001 L 35 1.4210854715202004e-14 L 70 88.52976000000001 C 70 88.52976000000001 60.516890000000004 99.41019000000001 35 99.98063 z" stroke-linecap="round" />
</g>
<g transform="matrix(1 0 0 1 169.5 406.97)" id="UvA1kz0Orwh9s7m8Je66Q"  >
<path style="stroke: rgb(49,168,247); stroke-width: 0; stroke-dasharray: none; stroke-linecap: butt; stroke-dashoffset: 0; stroke-linejoin: miter; stroke-miterlimit: 4; fill: rgb(33,33,33); fill-rule: nonzero; opacity: 1;" vector-effect="non-scaling-stroke"  transform=" translate(0, 0)" d="M 0 42.3421 C -27.33953 42.82536 -37.5 32.64124 -37.5 32.64124 L 0 -42.35876 L 37.5 32.64124 C 37.5 32.64124 27.33953 41.85884 0 42.3421 z" stroke-linecap="round" />
</g>
</svg>